<svg width="24" height="24" viewBox="0 0 24 24" fill="none" xmlns="http://www.w3.org/2000/svg">
<path d="M19.8251 4.43999L18.3851 2.98001C18.2651 2.86001 18.1251 2.8 17.9651 2.8C17.8051 2.8 17.6451 2.86001 17.5451 2.98001L9.16512 11.48C9.10512 11.54 9.06511 11.6 9.02511 11.68L8.08512 14.06C8.00512 14.28 8.04511 14.54 8.22511 14.7C8.34511 14.82 8.4851 14.88 8.6451 14.88C8.7251 14.88 8.78512 14.86 8.86512 14.84L11.2251 13.9C11.3051 13.86 11.3651 13.82 11.4251 13.76L19.8051 5.26001C20.0651 5.04001 20.0651 4.65999 19.8251 4.43999ZM10.6851 12.84L9.72511 13.22L10.1051 12.24L17.9651 4.26001L18.5651 4.86001L10.6851 12.84ZM16.8051 12.12V20.2C16.8051 20.64 16.4051 21 15.9651 21H4.60511C4.16511 21 3.80511 20.64 3.80511 20.2V4.96001C3.80511 4.52001 4.16511 4.2 4.60511 4.2H12.9251C13.3651 4.2 13.7251 4.56 13.7251 5C13.7251 5.44 13.3651 5.8 12.9251 5.8H5.40511V19.4H15.2051V12.12C15.2051 11.68 15.5651 11.32 16.0051 11.32C16.4451 11.32 16.8051 11.68 16.8051 12.12Z" fill="black"/>
</svg>
