<svg width="24" height="24" viewBox="0 0 24 24" fill="none" xmlns="http://www.w3.org/2000/svg">
<path d="M19.19 14.06C20.3277 14.06 21.25 13.1377 21.25 12C21.25 10.8623 20.3277 9.94 19.19 9.94C18.0523 9.94 17.13 10.8623 17.13 12C17.13 13.1377 18.0523 14.06 19.19 14.06Z" stroke="black" stroke-width="1.5" stroke-linecap="round" stroke-linejoin="round"/>
<path d="M12 14.06C13.1377 14.06 14.06 13.1377 14.06 12C14.06 10.8623 13.1377 9.94 12 9.94C10.8623 9.94 9.94 10.8623 9.94 12C9.94 13.1377 10.8623 14.06 12 14.06Z" stroke="black" stroke-width="1.5" stroke-linecap="round" stroke-linejoin="round"/>
<path d="M4.81 14.06C5.9477 14.06 6.87 13.1377 6.87 12C6.87 10.8623 5.9477 9.94 4.81 9.94C3.67229 9.94 2.75 10.8623 2.75 12C2.75 13.1377 3.67229 14.06 4.81 14.06Z" stroke="black" stroke-width="1.5" stroke-linecap="round" stroke-linejoin="round"/>
</svg>
